<svg preserveAspectRatio="none" width="100%" height="100%" overflow="visible" style="display: block;" viewBox="0 0 12 12" fill="none" xmlns="http://www.w3.org/2000/svg">
<path id="Vector" fill-rule="evenodd" clip-rule="evenodd" d="M8.53333 4.8C8.53333 6.86187 6.86187 8.53333 4.8 8.53333C2.73813 8.53333 1.06667 6.86187 1.06667 4.8C1.06667 2.73813 2.73813 1.06667 4.8 1.06667C6.86187 1.06667 8.53333 2.73813 8.53333 4.8ZM7.7961 8.55029C6.97494 9.20725 5.93334 9.6 4.8 9.6C2.14903 9.6 0 7.45097 0 4.8C0 2.14903 2.14903 0 4.8 0C7.45097 0 9.6 2.14903 9.6 4.8C9.6 5.93334 9.20725 6.97494 8.55029 7.7961L11.5772 10.8228C11.7854 11.0311 11.7854 11.3689 11.5772 11.5772C11.3689 11.7854 11.0311 11.7854 10.8228 11.5772L7.7961 8.55029Z" fill="var(--fill-0, white)"/>
</svg>
