<svg width="40" height="40" viewBox="0 0 40 40" fill="none" xmlns="http://www.w3.org/2000/svg">
<rect width="40" height="40" fill="white"/>
<path d="M4 6V34H13.4497V28.5312H14V20C14 19.4477 14.4477 19 15 19H26V6H4ZM7.10067 9.13542H10.2752V12.1979H7.10067V9.13542ZM13.4497 9.13542H16.5503V12.1979H13.4497V9.13542ZM19.7248 9.13542H22.8993V12.1979H19.7248V9.13542ZM7.10067 15.3333H10.2752V18.4688H7.10067V15.3333ZM13.4497 15.3333H16.5503V18.4688H13.4497V15.3333ZM19.7248 15.3333H22.8993V18.4688H19.7248V15.3333ZM7.10067 21.5312H10.2752V24.6667H7.10067V21.5312ZM13.4497 21.5312H14V24.6667H13.4497V21.5312ZM7.10067 27.8021H10.2752V30.8646H7.10067V27.8021Z" fill="#50CEE1"/>
<path opacity="0.6" d="M26 21H18C17.4696 21 16.9609 21.2107 16.5858 21.5858C16.2107 21.9609 16 22.4696 16 23V27C16 27.5304 16.2107 28.0391 16.5858 28.4142C16.9609 28.7893 17.4696 29 18 29H19V33C19 33.2652 19.1054 33.5196 19.2929 33.7071C19.4804 33.8946 19.7348 34 20 34H22C22.2652 34 22.5196 33.8946 22.7071 33.7071C22.8946 33.5196 23 33.2652 23 33V29H26L31 33V17L26 21ZM36 25C36 26.71 34.54 28.26 33 29V21C34.53 21.75 36 23.3 36 25Z" fill="#146DA6"/>
</svg>
