<svg width="32" height="32" viewBox="0 0 32 32" fill="none" xmlns="http://www.w3.org/2000/svg">
<path d="M3.19922 4.7998V27.1998H10.759V22.8248H11.1992V16.1998C11.1992 15.6475 11.6469 15.1998 12.1992 15.1998H20.7992V4.7998H3.19922ZM5.67976 7.30814H8.21935V9.75814H5.67976V7.30814ZM10.759 7.30814H13.2395V9.75814H10.759V7.30814ZM15.7791 7.30814H18.3187V9.75814H15.7791V7.30814ZM5.67976 12.2665H8.21935V14.7748H5.67976V12.2665ZM10.759 12.2665H13.2395V14.7748H10.759V12.2665ZM15.7791 12.2665H18.3187V14.7748H15.7791V12.2665ZM5.67976 17.2248H8.21935V19.7331H5.67976V17.2248ZM10.759 17.2248H11.1992V19.7331H10.759V17.2248ZM5.67976 22.2415H8.21935V24.6915H5.67976V22.2415Z" fill="#50CEE1"/>
<path opacity="0.6" d="M20.8008 16.8001H14.4008C13.9764 16.8001 13.5695 16.9687 13.2694 17.2687C12.9694 17.5688 12.8008 17.9758 12.8008 18.4001V21.6001C12.8008 22.0244 12.9694 22.4314 13.2694 22.7315C13.5695 23.0315 13.9764 23.2001 14.4008 23.2001H15.2008V26.4001C15.2008 26.6123 15.2851 26.8158 15.4351 26.9658C15.5851 27.1158 15.7886 27.2001 16.0008 27.2001H17.6008C17.813 27.2001 18.0164 27.1158 18.1665 26.9658C18.3165 26.8158 18.4008 26.6123 18.4008 26.4001V23.2001H20.8008L24.8008 26.4001V13.6001L20.8008 16.8001ZM28.8008 20.0001C28.8008 21.3681 27.6328 22.6081 26.4008 23.2001V16.8001C27.6248 17.4001 28.8008 18.6401 28.8008 20.0001Z" fill="#146DA6"/>
</svg>
