<svg width="40" height="40" viewBox="0 0 40 40" fill="none" xmlns="http://www.w3.org/2000/svg">
<path opacity="0.6" d="M23.3803 14H27.6197C28.1784 14 28.6549 14.214 29.0493 14.642C29.4765 15.037 29.6901 15.5144 29.6901 16.0741V18.1975H33.9296C34.4883 18.1975 34.9648 18.4115 35.3592 18.8395C35.7864 19.2346 36 19.7284 36 20.321V31.8765C36 32.4691 35.7864 32.9794 35.3592 33.4074C34.9648 33.8025 34.4883 34 33.9296 34H17.0704C16.5117 34 16.0188 33.8025 15.5915 33.4074C15.1972 32.9794 15 32.4691 15 31.8765V20.321C15 19.7284 15.1972 19.2346 15.5915 18.8395C16.0188 18.4115 16.5117 18.1975 17.0704 18.1975H21.3099V16.0741C21.3099 15.5144 21.507 15.037 21.9014 14.642C22.3286 14.214 22.8216 14 23.3803 14ZM27.6197 18.1975V16.0741H23.3803V18.1975H27.6197Z" fill="#146DA6"/>
<path fill-rule="evenodd" clip-rule="evenodd" d="M4 34V6H26V12H22.8993V9.13542H19.7248V12.1979H21.0977C20.8065 12.3263 20.5345 12.5171 20.2817 12.7704C19.8085 13.2444 19.5718 13.8173 19.5718 14.4889V16.037H16.5503V15.3333H13.4497V17.1125C13.1499 17.5283 13 18.0192 13 18.5852V33.4519C13 33.6416 13.0168 33.8243 13.0505 34H4ZM10.2752 9.13542H7.10067V12.1979H10.2752V9.13542ZM16.5503 9.13542H13.4497V12.1979H16.5503V9.13542ZM10.2752 15.3333H7.10067V18.4688H10.2752V15.3333ZM10.2752 21.5312H7.10067V24.6667H10.2752V21.5312ZM10.2752 27.8021H7.10067V30.8646H10.2752V27.8021Z" fill="#50CEE1"/>
</svg>
