<svg width="40" height="40" viewBox="0 0 40 40" fill="none" xmlns="http://www.w3.org/2000/svg">
<path d="M14.625 23.3125V22H5.3125V27.3125C5.3125 28.0625 5.5625 28.7083 6.0625 29.25C6.60417 29.75 7.25 30 8 30H14.625C14.625 29.5694 14.625 29.4372 14.625 29C14.625 28.5628 14.625 27.75 14.625 27V26V25V24V23.3125ZM28 11.3125H22.625V8.6875L20 6H14.625L12 8.6875V11.3125H6.625C5.91667 11.3125 5.29167 11.5833 4.75 12.125C4.25 12.625 4 13.25 4 14V18C4 18.75 4.25 19.3958 4.75 19.9375C5.29167 20.4375 5.91667 20.6875 6.625 20.6875H14.625C14.625 19.2032 15.8282 18 17.3125 18H20.5L23.5 15H28C29 16 30 17 30.625 17.5601V14C30.625 13.25 30.3542 12.625 29.8125 12.125C29.3125 11.5833 28.7083 11.3125 28 11.3125ZM20 11.3125H14.625V8.6875H20V11.3125Z" fill="#50CEE1"/>
<path opacity="0.6" d="M23.9812 28.9844V28H16.9859V31.9844C16.9859 32.5469 17.1737 33.0312 17.5493 33.4375C17.9562 33.8125 18.4413 34 19.0047 34H32.9953C33.5587 34 34.0282 33.8125 34.4038 33.4375C34.8106 33.0312 35.0141 32.5469 35.0141 31.9844V28H28.0188V28.9844H23.9812ZM34.0282 19.9844H29.9906V18.0156L28.0188 16H23.9812L22.0094 18.0156V19.9844H17.9718C17.4397 19.9844 16.9703 20.1875 16.5634 20.5938C16.1878 20.9688 16 21.4375 16 22V25C16 25.5625 16.1878 26.0469 16.5634 26.4531C16.9703 26.8281 17.4397 27.0156 17.9718 27.0156H23.9812V25H28.0188V27.0156H34.0282C34.5603 27.0156 35.0141 26.8281 35.3897 26.4531C35.7966 26.0469 36 25.5625 36 25V22C36 21.4375 35.7966 20.9688 35.3897 20.5938C35.0141 20.1875 34.5603 19.9844 34.0282 19.9844ZM28.0188 19.9844H23.9812V18.0156H28.0188V19.9844Z" fill="#146DA6"/>
</svg>
