<svg width="32" height="32" viewBox="0 0 32 32" fill="none" xmlns="http://www.w3.org/2000/svg">
<path opacity="0.6" d="M18.7042 11.2002H22.0958C22.5427 11.2002 22.9239 11.3714 23.2394 11.7138C23.5812 12.0298 23.7521 12.4117 23.7521 12.8595V14.5582H27.1437C27.5906 14.5582 27.9718 14.7294 28.2873 15.0718C28.6291 15.3878 28.8 15.7829 28.8 16.257V25.5014C28.8 25.9755 28.6291 26.3837 28.2873 26.7261C27.9718 27.0422 27.5906 27.2002 27.1437 27.2002H13.6563C13.2094 27.2002 12.815 27.0422 12.4732 26.7261C12.1577 26.3837 12 25.9755 12 25.5014V16.257C12 15.7829 12.1577 15.3878 12.4732 15.0718C12.815 14.7294 13.2094 14.5582 13.6563 14.5582H17.0479V12.8595C17.0479 12.4117 17.2056 12.0298 17.5211 11.7138C17.8629 11.3714 18.2573 11.2002 18.7042 11.2002ZM22.0958 14.5582V12.8595H18.7042V14.5582H22.0958Z" fill="#146DA6"/>
<path fill-rule="evenodd" clip-rule="evenodd" d="M3.19922 27.1998V4.7998H20.7992V9.5998H18.3187V7.30814H15.7791V9.75814H16.8774C16.6444 9.86083 16.4268 10.0135 16.2246 10.2161C15.846 10.5954 15.6567 11.0536 15.6567 11.5909V12.8294H13.2395V12.2665H10.759V13.6898C10.5191 14.0225 10.3992 14.4152 10.3992 14.868V26.7613C10.3992 26.9131 10.4127 27.0593 10.4397 27.1998H3.19922ZM8.21935 7.30814H5.67976V9.75814H8.21935V7.30814ZM13.2395 7.30814H10.759V9.75814H13.2395V7.30814ZM8.21935 12.2665H5.67976V14.7748H8.21935V12.2665ZM8.21935 17.2248H5.67976V19.7331H8.21935V17.2248ZM8.21935 22.2415H5.67976V24.6915H8.21935V22.2415Z" fill="#50CEE1"/>
</svg>
