<svg width="32" height="32" viewBox="0 0 32 32" fill="none" xmlns="http://www.w3.org/2000/svg">
<path d="M11.6992 18.6498V17.5998H4.24922V21.8498C4.24922 22.4498 4.44922 22.9665 4.84922 23.3998C5.28255 23.7998 5.79922 23.9998 6.39922 23.9998H11.6992C11.6992 23.6553 11.6992 23.5495 11.6992 23.1998C11.6992 22.8501 11.6992 22.1998 11.6992 21.5998V20.7998V19.9998V19.1998V18.6498ZM22.3992 9.0498H18.0992V6.9498L15.9992 4.7998H11.6992L9.59922 6.9498V9.0498H5.29922C4.73255 9.0498 4.23255 9.26647 3.79922 9.6998C3.39922 10.0998 3.19922 10.5998 3.19922 11.1998V14.3998C3.19922 14.9998 3.39922 15.5165 3.79922 15.9498C4.23255 16.3498 4.73255 16.5498 5.29922 16.5498H11.6992C11.6992 15.3624 12.6618 14.3998 13.8492 14.3998H16.3992L18.7992 11.9998H22.3992C23.1992 12.7998 23.9992 13.5998 24.4992 14.0479V11.1998C24.4992 10.5998 24.2826 10.0998 23.8492 9.6998C23.4492 9.26647 22.9659 9.0498 22.3992 9.0498ZM15.9992 9.0498H11.6992V6.9498H15.9992V9.0498Z" fill="#50CEE1"/>
<path opacity="0.6" d="M19.1858 23.1873V22.3998H13.5895V25.5873C13.5895 26.0373 13.7397 26.4248 14.0402 26.7498C14.3657 27.0498 14.7538 27.1998 15.2045 27.1998H26.397C26.8477 27.1998 27.2233 27.0498 27.5238 26.7498C27.8493 26.4248 28.012 26.0373 28.012 25.5873V22.3998H22.4158V23.1873H19.1858ZM27.2233 15.9873H23.9933V14.4123L22.4158 12.7998H19.1858L17.6083 14.4123V15.9873H14.3782C13.9526 15.9873 13.577 16.1498 13.2515 16.4748C12.951 16.7748 12.8008 17.1498 12.8008 17.5998V19.9998C12.8008 20.4498 12.951 20.8373 13.2515 21.1623C13.577 21.4623 13.9526 21.6123 14.3782 21.6123H19.1858V19.9998H22.4158V21.6123H27.2233C27.649 21.6123 28.012 21.4623 28.3125 21.1623C28.638 20.8373 28.8008 20.4498 28.8008 19.9998V17.5998C28.8008 17.1498 28.638 16.7748 28.3125 16.4748C28.012 16.1498 27.649 15.9873 27.2233 15.9873ZM22.4158 15.9873H19.1858V14.4123H22.4158V15.9873Z" fill="#146DA6"/>
</svg>
