<svg width="40" height="40" viewBox="0 0 40 40" fill="none" xmlns="http://www.w3.org/2000/svg">
<path opacity="0.6" fill-rule="evenodd" clip-rule="evenodd" d="M10.05 12.0002C10.0333 12.0001 10.0167 12 10 12C8.62222 12 7.44444 12.4889 6.46667 13.4667C5.48889 14.4444 5 15.6222 5 17C5 18.3778 5.48889 19.5556 6.46667 20.5333C7.44444 21.5111 8.62222 22 10 22C11.3778 22 12.5556 21.5111 13.5333 20.5333C13.6683 20.3984 13.7939 20.2597 13.9102 20.1171C13.4526 19.8014 13.0155 19.4354 12.5991 19.019C10.8782 17.298 10.0177 15.2251 10.0177 12.8002C10.0177 12.5291 10.0285 12.2625 10.05 12.0002ZM10.8122 24.0059C10.709 24.002 10.6049 24 10.5 24C9.31535 24 8.22422 24.2486 7.22662 24.7458C6.26019 25.2429 5.48082 25.9209 4.88849 26.7797C4.29616 27.5932 4 28.4746 4 29.4237V32H7.5V30.5469C7.5 28.9062 8.01553 27.3826 9.04659 25.9763C9.55573 25.2433 10.1443 24.5865 10.8122 24.0059ZM30.129 32H36V29.4237C36 28.4746 35.7038 27.5932 35.1115 26.7797C34.5192 25.9209 33.7242 25.2429 32.7266 24.7458C31.7602 24.2486 30.6847 24 29.5 24C28.684 24 27.9124 24.1179 27.1852 24.3538C27.7067 24.8452 28.1725 25.3861 28.5824 25.9763C29.6135 27.3826 30.129 28.9062 30.129 30.5469V32ZM24.6121 19.4198C24.8357 19.816 25.1205 20.1872 25.4667 20.5333C26.4444 21.5111 27.6222 22 29 22C30.3778 22 31.5556 21.5111 32.5333 20.5333C33.5111 19.5556 34 18.3778 34 17C34 15.6222 33.5111 14.4444 32.5333 13.4667C31.5556 12.4889 30.3778 12 29 12C28.5075 12 28.0406 12.0625 27.5993 12.1874C27.6118 12.3891 27.618 12.5933 27.618 12.8002C27.618 15.2251 26.7576 17.298 25.0367 19.019C24.8974 19.1582 24.7559 19.2918 24.6121 19.4198Z" fill="#146DA6"/>
<path fill-rule="evenodd" clip-rule="evenodd" d="M19 6C20.9289 6 22.5778 6.68444 23.9467 8.05333C25.3156 9.42222 26 11.0711 26 13C26 14.9289 25.3156 16.5778 23.9467 17.9467C22.5778 19.3156 20.9289 20 19 20C17.0711 20 15.4222 19.3156 14.0533 17.9467C12.6844 16.5778 12 14.9289 12 13C12 11.0711 12.6844 9.42222 14.0533 8.05333C15.4222 6.68444 17.0711 6 19 6ZM10 30.4576C10 29.1525 10.4101 27.9407 11.2302 26.822C12.0504 25.6412 13.1295 24.709 14.4676 24.0254C15.8489 23.3418 17.3597 23 19 23C20.6403 23 22.1295 23.3418 23.4676 24.0254C24.8489 24.709 25.9496 25.6412 26.7698 26.822C27.5899 27.9407 28 29.1525 28 30.4576V34H10V30.4576Z" fill="#50CEE1"/>
</svg>
