<svg width="32" height="32" viewBox="0 0 32 32" fill="none" xmlns="http://www.w3.org/2000/svg">
<path opacity="0.6" fill-rule="evenodd" clip-rule="evenodd" d="M8.03918 9.60027C8.02588 9.60016 8.01256 9.6001 7.99922 9.6001C6.897 9.6001 5.95477 9.99121 5.17255 10.7734C4.39033 11.5557 3.99922 12.4979 3.99922 13.6001C3.99922 14.7023 4.39033 15.6445 5.17255 16.4268C5.95477 17.209 6.897 17.6001 7.99922 17.6001C9.10144 17.6001 10.0437 17.209 10.8259 16.4268C10.9338 16.3188 11.0343 16.2078 11.1274 16.0938C10.7613 15.8412 10.4116 15.5484 10.0785 15.2153C8.70175 13.8385 8.01338 12.1802 8.01338 10.2402C8.01338 10.0234 8.02198 9.81007 8.03918 9.60027ZM8.64898 19.2048C8.56641 19.2017 8.48316 19.2001 8.39922 19.2001C7.4515 19.2001 6.5786 19.399 5.78051 19.7967C5.00737 20.1944 4.38387 20.7368 3.91001 21.4238C3.43615 22.0747 3.19922 22.7798 3.19922 23.5391V25.6001H5.99922V24.4376C5.99922 23.125 6.41164 21.9062 7.23649 20.7812C7.6438 20.1947 8.11463 19.6693 8.64898 19.2048ZM24.1024 25.6001H28.7992V23.5391C28.7992 22.7798 28.5623 22.0747 28.0884 21.4238C27.6146 20.7368 26.9786 20.1944 26.1805 19.7967C25.4074 19.399 24.5469 19.2001 23.5992 19.2001C22.9464 19.2001 22.3292 19.2944 21.7474 19.4831C22.1646 19.8763 22.5372 20.309 22.8652 20.7812C23.69 21.9062 24.1024 23.125 24.1024 24.4376V25.6001ZM19.6889 15.5359C19.8678 15.8529 20.0956 16.1499 20.3726 16.4268C21.1548 17.209 22.097 17.6001 23.1992 17.6001C24.3014 17.6001 25.2437 17.209 26.0259 16.4268C26.8081 15.6445 27.1992 14.7023 27.1992 13.6001C27.1992 12.4979 26.8081 11.5557 26.0259 10.7734C25.2437 9.99121 24.3014 9.6001 23.1992 9.6001C22.8052 9.6001 22.4317 9.65007 22.0786 9.75001C22.0886 9.91137 22.0937 10.0748 22.0937 10.2402C22.0937 12.1802 21.4053 13.8385 20.0285 15.2153C19.9172 15.3266 19.8039 15.4335 19.6889 15.5359Z" fill="#146DA6"/>
<path fill-rule="evenodd" clip-rule="evenodd" d="M15.2 4.7998C16.7431 4.7998 18.0622 5.34736 19.1573 6.44247C20.2524 7.53758 20.8 8.85669 20.8 10.3998C20.8 11.9429 20.2524 13.262 19.1573 14.3571C18.0622 15.4522 16.7431 15.9998 15.2 15.9998C13.6569 15.9998 12.3378 15.4522 11.2427 14.3571C10.1476 13.262 9.6 11.9429 9.6 10.3998C9.6 8.85669 10.1476 7.53758 11.2427 6.44247C12.3378 5.34736 13.6569 4.7998 15.2 4.7998ZM8 24.3659C8 23.3218 8.32806 22.3523 8.98417 21.4574C9.64029 20.5128 10.5036 19.767 11.5741 19.2201C12.6791 18.6733 13.8878 18.3998 15.2 18.3998C16.5122 18.3998 17.7036 18.6733 18.7741 19.2201C19.8791 19.767 20.7597 20.5128 21.4158 21.4574C22.0719 22.3523 22.4 23.3218 22.4 24.3659V27.1998H8V24.3659Z" fill="#50CEE1"/>
</svg>
