<svg width="40" height="40" viewBox="0 0 40 40" fill="none" xmlns="http://www.w3.org/2000/svg">
<path opacity="0.6" d="M30.499 26C31.6835 26 32.7592 26.249 33.7256 26.7461C34.7229 27.2432 35.5181 27.9208 36.1104 28.7793C36.7027 29.5929 36.999 30.4747 36.999 31.4238V34H31.1279V30.5469C31.1279 28.9328 30.6278 27.4331 29.6299 26.0459C29.9138 26.0149 30.2035 26 30.499 26ZM29.999 14C31.3767 14 32.5545 14.4892 33.5322 15.4668C34.51 16.4446 34.999 17.6222 34.999 19C34.999 20.3778 34.51 21.5554 33.5322 22.5332C32.5545 23.5108 31.3767 24 29.999 24C28.6214 23.9999 27.4435 23.5109 26.4658 22.5332C25.6995 21.7668 25.234 20.8773 25.0684 19.8652C25.4021 19.6106 25.7254 19.3293 26.0361 19.0186C27.4124 17.6421 28.2363 16.0398 28.5117 14.2129C28.9785 14.071 29.4742 14 29.999 14Z" fill="#146DA6"/>
<path d="M20 23C21.6403 23 23.1296 23.3418 24.4678 24.0254C25.849 24.709 26.9494 25.6415 27.7695 26.8223C28.5897 27.9409 29 29.1529 29 30.458V34H11V30.458C11 29.1529 11.4103 27.9409 12.2305 26.8223C13.0506 25.6415 14.1296 24.709 15.4678 24.0254C16.849 23.3418 18.3598 23 20 23ZM20 6C21.9289 6 23.5774 6.68482 24.9463 8.05371C26.3152 9.4226 27 11.0711 27 13C27 14.9289 26.3152 16.5774 24.9463 17.9463C23.5774 19.3152 21.9289 20 20 20C18.0711 20 16.4226 19.3152 15.0537 17.9463C13.6848 16.5774 13 14.9289 13 13C13 11.0711 13.6848 9.4226 15.0537 8.05371C16.4226 6.68482 18.0711 6 20 6Z" fill="#50CEE1"/>
<path d="M14.107 21.0717L12.441 19L7.09572 24.3174L4.73548 21.9695L3 23.6959L7.09572 28.1156L14.107 21.0717Z" fill="#50CEE1"/>
</svg>
