<svg width="32" height="32" viewBox="0 0 32 32" fill="none" xmlns="http://www.w3.org/2000/svg">
<path opacity="0.6" fill-rule="evenodd" clip-rule="evenodd" d="M24.9017 27H29.5979V24.939C29.5979 24.1797 29.361 23.4746 28.8871 22.8237C28.4133 22.1367 27.7773 21.5944 26.9792 21.1966C26.2061 20.7989 25.3457 20.6 24.3979 20.6C24.1165 20.6 23.8416 20.6175 23.5733 20.6526C23.6041 20.6951 23.6344 20.738 23.6644 20.7812C24.4893 21.9062 24.9017 23.125 24.9017 24.4376V27ZM20.0859 15.8696C20.2415 16.6063 20.6033 17.2587 21.1713 17.8267C21.9535 18.6089 22.8957 19 23.9979 19C25.1002 19 26.0424 18.6089 26.8246 17.8267C27.6068 17.0444 27.9979 16.1022 27.9979 15C27.9979 13.8978 27.6068 12.9556 26.8246 12.1733C26.0424 11.3911 25.1002 11 23.9979 11C23.5896 11 23.2031 11.0537 22.8387 11.1611C22.6518 12.7102 21.9815 14.0616 20.8278 15.2153C20.589 15.4541 20.3417 15.6722 20.0859 15.8696Z" fill="#146DA6"/>
<path fill-rule="evenodd" clip-rule="evenodd" d="M16.0008 4.7998C17.5439 4.7998 18.863 5.34736 19.9581 6.44247C21.0532 7.53758 21.6008 8.85669 21.6008 10.3998C21.6008 11.9429 21.0532 13.262 19.9581 14.3571C18.863 15.4522 17.5439 15.9998 16.0008 15.9998C14.4577 15.9998 13.1386 15.4522 12.0434 14.3571C10.9483 13.262 10.4008 11.9429 10.4008 10.3998C10.4008 8.85669 10.9483 7.53758 12.0434 6.44247C13.1386 5.34736 14.4577 4.7998 16.0008 4.7998ZM8.80078 24.3659C8.80078 23.3218 9.12884 22.3523 9.78495 21.4574C10.4411 20.5128 11.3044 19.767 12.3749 19.2201C13.4799 18.6733 14.6886 18.3998 16.0008 18.3998C17.313 18.3998 18.5044 18.6733 19.5749 19.2201C20.6799 19.767 21.5605 20.5128 22.2166 21.4574C22.8727 22.3523 23.2008 23.3218 23.2008 24.3659V27.1998H8.80078V24.3659Z" fill="#50CEE1"/>
<path d="M11.286 16.8576L9.95318 15.2002L5.67697 19.4541L3.78877 17.5758L2.40039 18.9569L5.67697 22.4927L11.286 16.8576Z" fill="#50CEE1"/>
</svg>
