<svg width="24" height="24" viewBox="0 0 24 24" fill="none" xmlns="http://www.w3.org/2000/svg">
<path fill-rule="evenodd" clip-rule="evenodd" d="M14.1842 3.03509C13.1608 2.0117 11.9327 1.5 10.5 1.5C9.06725 1.5 7.83918 2.0117 6.81579 3.03509C5.7924 4.05848 5.2807 5.30702 5.2807 6.7807C5.2807 8.21345 5.7924 9.44152 6.81579 10.4649C7.83918 11.4883 9.06725 12 10.5 12C11.9327 12 13.1608 11.4883 14.1842 10.4649C15.2076 9.44152 15.7193 8.21345 15.7193 6.7807C15.7193 5.30702 15.2076 4.05848 14.1842 3.03509ZM13.6561 14.8923C12.653 14.7243 11.601 14.6404 10.5 14.6404C8.61696 14.6404 6.85673 14.886 5.2193 15.3772C3.62281 15.8275 2.3538 16.462 1.41228 17.2807C0.47076 18.0585 0 18.9181 0 19.8596V22.5H18.0198L12.5488 18.2543L14.1694 17.0041L12.5488 15.7464L13.6561 14.8923ZM20.9534 19.3549C20.9534 19.3549 20.9534 19.3549 20.9534 19.3549L19.5 20.4844L19.5 20.4844L20.9534 19.3549ZM19.9614 17.618C19.9614 17.618 19.9614 17.618 19.9614 17.618L19.5 17.9766L19.5 17.9765L19.9614 17.618ZM15.5495 15.326C15.5495 15.326 15.5495 15.326 15.5496 15.3261L15 15.75L15 15.75L15.5495 15.326ZM21 22.4846V22.5H20.9801L21 22.4846ZM15.8203 17.625L15 18.2578L15 18.2578L15.8203 17.625L15.8203 17.625Z" fill="#50CEE1"/>
<path opacity="0.6" d="M19.5 9.75L24 13.2422L19.5 16.7578L15 13.2422L19.5 9.75ZM23.1797 15.1172L24 15.75L19.5 19.2422L15 15.75L15.8203 15.1172L19.5 17.9766L23.1797 15.1172ZM23.1797 17.625L24 18.2578L19.5 21.75L15 18.2578L15.8203 17.625L19.5 20.4844L23.1797 17.625Z" fill="#146DA6"/>
</svg>
