<svg width="24" height="24" viewBox="0 0 24 24" fill="none" xmlns="http://www.w3.org/2000/svg">
<path d="M11.4642 10.1905C12.9439 9.79675 14.2979 11.1416 13.9014 12.6112L11.2251 22.5315C10.8286 24.0011 8.97902 24.4934 7.8958 23.4175L0.58408 16.1554C-0.499138 15.0795 -0.00353206 13.2424 1.47617 12.8487L11.4642 10.1905Z" fill="#50CEE1"/>
<path opacity="0.6" d="M12.5226 13.9043C11.0414 14.3033 9.68917 12.952 10.0885 11.472L12.7836 1.48165C13.1829 0.00160692 15.0343 -0.497128 16.1161 0.58393L23.4184 7.88107C24.5002 8.96213 24.0011 10.8122 22.52 11.2112L12.5226 13.9043Z" fill="#146DA6"/>
<path opacity="0.4" d="M8.78794 23.9322C7.72635 23.6496 7.09635 22.5659 7.3808 21.5115L12.7888 1.46543C13.0733 0.411038 14.1645 -0.214686 15.2261 0.0678379C16.2877 0.350361 16.9177 1.43415 16.6332 2.48854L11.2252 22.5346C10.9407 23.589 9.84954 24.2147 8.78794 23.9322Z" fill="#146DA6"/>
</svg>
