<svg width="32" height="32" viewBox="0 0 32 32" fill="none" xmlns="http://www.w3.org/2000/svg">
<path d="M15.2856 13.5877C17.2585 13.0627 19.0639 14.8558 18.5352 16.8153L14.9668 30.0423C14.4382 32.0018 11.972 32.6581 10.5277 31.2236L0.778774 21.5408C-0.665516 20.1064 -0.00470921 17.6569 1.96823 17.1319L15.2856 13.5877Z" fill="#50CEE1"/>
<path opacity="0.6" d="M16.6954 18.5393C14.7206 19.0713 12.9176 17.2695 13.45 15.2961L17.0436 1.9757C17.5759 0.00230532 20.0444 -0.662675 21.4869 0.778737L31.2232 10.5083C32.6657 11.9497 32.0002 14.4164 30.0254 14.9484L16.6954 18.5393Z" fill="#146DA6"/>
<path opacity="0.4" d="M11.7173 31.9095C10.3018 31.5329 9.4618 30.0878 9.84107 28.6819L17.0518 1.95391C17.431 0.54805 18.886 -0.286247 20.3014 0.0904506C21.7169 0.467149 22.5569 1.91219 22.1776 3.31805L14.9669 30.0461C14.5876 31.452 13.1327 32.2862 11.7173 31.9095Z" fill="#146DA6"/>
</svg>
