<svg width="40" height="40" viewBox="0 0 40 40" fill="none" xmlns="http://www.w3.org/2000/svg">
<path d="M18 6C19.9103 6 21.5478 6.68226 22.9123 8.04678C24.2768 9.41131 24.9591 11.076 24.9591 13.0409C24.9591 14.9513 24.2768 16.5887 22.9123 17.9532C21.5478 19.3177 19.9103 20 18 20C16.0897 20 14.4522 19.3177 13.0877 17.9532C11.7232 16.5887 11.0409 14.9513 11.0409 13.0409C11.0409 11.076 11.7232 9.41131 13.0877 8.04678C14.4522 6.68226 16.0897 6 18 6ZM20 23C20 23.4795 20 24.3401 20 25C20 25.5 20 26 20 27C20 28.5 20 29.7446 20 31V34H4V30.4795C4 29.2242 4.62768 28.078 5.88304 27.0409C7.1384 25.9493 8.83041 25.1033 10.9591 24.5029C13.1423 23.848 17.4893 23 20 23Z" fill="#50CEE1"/>
<path opacity="0.6" d="M27.5869 21H30.4131C30.7856 21 31.1033 21.1391 31.3662 21.4173C31.651 21.6741 31.7934 21.9844 31.7934 22.3481V23.7284H34.6197C34.9922 23.7284 35.3099 23.8675 35.5728 24.1457C35.8576 24.4025 36 24.7235 36 25.1086V32.6198C36 33.0049 35.8576 33.3366 35.5728 33.6148C35.3099 33.8716 34.9922 34 34.6197 34H23.3803C23.0078 34 22.6792 33.8716 22.3944 33.6148C22.1315 33.3366 22 33.0049 22 32.6198V25.1086C22 24.7235 22.1315 24.4025 22.3944 24.1457C22.6792 23.8675 23.0078 23.7284 23.3803 23.7284H26.2066V22.3481C26.2066 21.9844 26.338 21.6741 26.6009 21.4173C26.8858 21.1391 27.2144 21 27.5869 21ZM30.4131 23.7284V22.3481H27.5869V23.7284H30.4131Z" fill="#146DA6"/>
</svg>
