<svg width="32" height="32" viewBox="0 0 32 32" fill="none" xmlns="http://www.w3.org/2000/svg">
<path d="M14.3992 4.7998C15.9275 4.7998 17.2374 5.34561 18.329 6.43723C19.4207 7.52885 19.9665 8.86062 19.9665 10.4326C19.9665 11.9608 19.4207 13.2708 18.329 14.3624C17.2374 15.454 15.9275 15.9998 14.3992 15.9998C12.871 15.9998 11.561 15.454 10.4694 14.3624C9.37778 13.2708 8.83197 11.9608 8.83197 10.4326C8.83197 8.86062 9.37778 7.52885 10.4694 6.43723C11.561 5.34561 12.871 4.7998 14.3992 4.7998ZM15.9992 18.3998C15.9992 18.7834 15.9992 19.4719 15.9992 19.9998C15.9992 20.3998 15.9992 20.7998 15.9992 21.5998C15.9992 22.7998 15.9992 23.7955 15.9992 24.7998V27.1998H3.19922V24.3834C3.19922 23.3791 3.70136 22.4622 4.70565 21.6326C5.70994 20.7593 7.06355 20.0825 8.76647 19.6021C10.5131 19.0782 13.9906 18.3998 15.9992 18.3998Z" fill="#50CEE1"/>
<path opacity="0.6" d="M22.0691 16.7998H24.3301C24.6281 16.7998 24.8822 16.9111 25.0926 17.1336C25.3204 17.3391 25.4344 17.5873 25.4344 17.8783V18.9825H27.6954C27.9934 18.9825 28.2475 19.0938 28.4578 19.3163C28.6857 19.5218 28.7996 19.7786 28.7996 20.0867V26.0956C28.7996 26.4038 28.6857 26.6691 28.4578 26.8917C28.2475 27.0971 27.9934 27.1998 27.6954 27.1998H18.7038C18.4059 27.1998 18.143 27.0971 17.9151 26.8917C17.7048 26.6691 17.5996 26.4038 17.5996 26.0956V20.0867C17.5996 19.7786 17.7048 19.5218 17.9151 19.3163C18.143 19.0938 18.4059 18.9825 18.7038 18.9825H20.9649V17.8783C20.9649 17.5873 21.07 17.3391 21.2804 17.1336C21.5082 16.9111 21.7711 16.7998 22.0691 16.7998ZM24.3301 18.9825V17.8783H22.0691V18.9825H24.3301Z" fill="#146DA6"/>
</svg>
