<svg width="40" height="40" viewBox="0 0 40 40" fill="none" xmlns="http://www.w3.org/2000/svg">
<path d="M18 6C19.9103 6 21.5478 6.68226 22.9123 8.04678C24.2768 9.41131 24.9591 11.076 24.9591 13.0409C24.9591 14.9513 24.2768 16.5887 22.9123 17.9532C21.5478 19.3177 19.9103 20 18 20C16.0897 20 14.4522 19.3177 13.0877 17.9532C11.7232 16.5887 11.0409 14.9513 11.0409 13.0409C11.0409 11.076 11.7232 9.41131 13.0877 8.04678C14.4522 6.68226 16.0897 6 18 6ZM20 23C20 23.4795 20 24.3401 20 25C20 25.5 20 26 20 27C20 28.5 20 29.7446 20 31V34H4V30.4795C4 29.2242 4.62768 28.078 5.88304 27.0409C7.1384 25.9493 8.83041 25.1033 10.9591 24.5029C13.1423 23.848 17.4893 23 20 23Z" fill="#50CEE1"/>
<path opacity="0.6" d="M34.4323 20C34.8698 20 35.2344 20.158 35.526 20.474C35.842 20.7656 36 21.1302 36 21.5677V32.4323C36 32.8698 35.842 33.2465 35.526 33.5625C35.2344 33.8542 34.8698 34 34.4323 34H23.5677C23.1302 34 22.7535 33.8542 22.4375 33.5625C22.1458 33.2465 22 32.8698 22 32.4323V21.5677C22 21.1302 22.1458 20.7656 22.4375 20.474C22.7535 20.158 23.1302 20 23.5677 20H34.4323ZM26.6667 30.901V25.4323H25.099V30.901H26.6667ZM29.7656 30.901V23.099H28.2344V30.901H29.7656ZM32.901 30.901V27.7656H31.3333V30.901H32.901Z" fill="#146DA6"/>
</svg>
