<svg width="32" height="32" viewBox="0 0 32 32" fill="none" xmlns="http://www.w3.org/2000/svg">
<path d="M14.3992 4.7998C15.9275 4.7998 17.2374 5.34561 18.329 6.43723C19.4207 7.52885 19.9665 8.86062 19.9665 10.4326C19.9665 11.9608 19.4207 13.2708 18.329 14.3624C17.2374 15.454 15.9275 15.9998 14.3992 15.9998C12.871 15.9998 11.561 15.454 10.4694 14.3624C9.37778 13.2708 8.83197 11.9608 8.83197 10.4326C8.83197 8.86062 9.37778 7.52885 10.4694 6.43723C11.561 5.34561 12.871 4.7998 14.3992 4.7998ZM15.9992 18.3998C15.9992 18.7834 15.9992 19.4719 15.9992 19.9998C15.9992 20.3998 15.9992 20.7998 15.9992 21.5998C15.9992 22.7998 15.9992 23.7955 15.9992 24.7998V27.1998H3.19922V24.3834C3.19922 23.3791 3.70136 22.4622 4.70565 21.6326C5.70994 20.7593 7.06355 20.0825 8.76647 19.6021C10.5131 19.0782 13.9906 18.3998 15.9992 18.3998Z" fill="#50CEE1"/>
<path opacity="0.6" d="M27.5454 16C27.8954 16 28.1871 16.1264 28.4204 16.3792C28.6732 16.6125 28.7996 16.9042 28.7996 17.2542V25.9458C28.7996 26.2958 28.6732 26.5972 28.4204 26.85C28.1871 27.0833 27.8954 27.2 27.5454 27.2H18.8538C18.5038 27.2 18.2024 27.0833 17.9496 26.85C17.7163 26.5972 17.5996 26.2958 17.5996 25.9458V17.2542C17.5996 16.9042 17.7163 16.6125 17.9496 16.3792C18.2024 16.1264 18.5038 16 18.8538 16H27.5454ZM21.3329 24.7208V20.3458H20.0788V24.7208H21.3329ZM23.8121 24.7208V18.4792H22.5871V24.7208H23.8121ZM26.3204 24.7208V22.2125H25.0663V24.7208H26.3204Z" fill="#146DA6"/>
</svg>
