<svg width="32" height="32" viewBox="0 0 32 32" fill="none" xmlns="http://www.w3.org/2000/svg">
<path opacity="0.6" d="M15.5326 13.1418C15.5326 12.8918 15.6159 12.6834 15.7826 12.5168C15.977 12.3501 16.1992 12.2668 16.4492 12.2668C16.6992 12.2668 16.9076 12.3501 17.0742 12.5168C17.2409 12.6834 17.3242 12.8918 17.3242 13.1418V17.1001L18.4076 17.2251L22.7826 19.1834C23.0326 19.2945 23.2131 19.4612 23.3242 19.6834C23.4631 19.8779 23.5326 20.114 23.5326 20.3918V24.2668C23.5326 24.6279 23.3937 24.9334 23.1159 25.1834C22.8659 25.4334 22.5603 25.5723 22.1992 25.6001H16.4492C16.0881 25.6001 15.7826 25.4612 15.5326 25.1834L11.1992 21.4751L11.8659 20.7668C12.0326 20.6001 12.2409 20.5168 12.4909 20.5168H12.6992L15.5326 22.0168V13.1418ZM16.4492 9.6001C17.4214 9.6001 18.2548 9.94732 18.9492 10.6418C19.6437 11.3362 19.9909 12.1695 19.9909 13.1418C19.9909 13.8084 19.8242 14.4195 19.4909 14.9751C19.1853 15.5029 18.7548 15.9195 18.1992 16.2251V15.1418C18.8103 14.614 19.1159 13.9612 19.1159 13.1834C19.1159 12.4057 18.852 11.7668 18.3242 11.2668C17.7964 10.739 17.1576 10.4751 16.4076 10.4751C15.6853 10.4751 15.0603 10.739 14.5326 11.2668C14.0326 11.7668 13.7826 12.4057 13.7826 13.1834C13.7826 13.9612 14.0742 14.614 14.6576 15.1418V16.2251C14.102 15.9195 13.6576 15.5029 13.3242 14.9751C13.0187 14.4195 12.8659 13.8084 12.8659 13.1418C12.8659 12.1695 13.2131 11.3362 13.9076 10.6418C14.602 9.94732 15.4492 9.6001 16.4492 9.6001Z" fill="#146DA6"/>
<path fill-rule="evenodd" clip-rule="evenodd" d="M7.44922 17.5998V6.9498H24.5492V17.5998H23.1623L23.4331 17.721L23.4355 17.7221C23.9516 17.952 24.401 18.3279 24.6973 18.8567C24.8692 19.1229 24.9842 19.4053 25.0527 19.692C25.4079 19.6064 25.7234 19.4257 25.9992 19.1498C26.4326 18.7165 26.6492 18.1998 26.6492 17.5998V6.9498C26.6492 6.3498 26.4326 5.8498 25.9992 5.4498C25.5992 5.01647 25.1159 4.7998 24.5492 4.7998H7.44922C6.88255 4.7998 6.38255 5.01647 5.94922 5.4498C5.54922 5.8498 5.34922 6.3498 5.34922 6.9498V17.5998C5.34922 18.1998 5.54922 18.7165 5.94922 19.1498C6.38255 19.5498 6.88255 19.7498 7.44922 19.7498H3.19922V22.3998H9.82004L8.88516 21.5998L10.7181 19.6522L10.7353 19.6351C11.2216 19.1488 11.8458 18.9165 12.4916 18.9165H13.0974L13.9333 19.359V17.6521L13.8872 17.6267C13.871 17.6178 13.8549 17.6089 13.8388 17.5998H7.44922ZM19.2453 17.5998L22.7826 19.1831C23.0326 19.2942 23.2131 19.4609 23.3242 19.6831C23.4631 19.8776 23.5326 20.1137 23.5326 20.3915V22.3998H23.5333V20.3915C23.5333 20.1137 23.4639 19.8776 23.325 19.6831C23.2139 19.4609 23.0333 19.2942 22.7833 19.1831L19.2461 17.5998H19.2453ZM25.1333 22.3998H28.7992V19.7498H25.0659C25.1123 19.9633 25.1333 20.1788 25.1333 20.3915V22.3998ZM15.5326 22.0165L12.6992 20.5165H12.7L15.5326 22.0161V22.0165Z" fill="#50CEE1"/>
</svg>
