<svg width="40" height="40" viewBox="0 0 40 40" fill="none" xmlns="http://www.w3.org/2000/svg">
<path opacity="0.6" d="M19.4167 16.4271C19.4167 16.1146 19.5208 15.8542 19.7292 15.6458C19.9722 15.4375 20.25 15.3333 20.5625 15.3333C20.875 15.3333 21.1354 15.4375 21.3438 15.6458C21.5521 15.8542 21.6562 16.1146 21.6562 16.4271V21.375L23.0104 21.5312L28.4792 23.9792C28.7917 24.1181 29.0174 24.3264 29.1562 24.6042C29.3299 24.8472 29.4167 25.1424 29.4167 25.4896V30.3333C29.4167 30.7847 29.2431 31.1667 28.8958 31.4792C28.5833 31.7917 28.2014 31.9653 27.75 32H20.5625C20.1111 32 19.7292 31.8264 19.4167 31.4792L14 26.8438L14.8333 25.9583C15.0417 25.75 15.3021 25.6458 15.6146 25.6458H15.875L19.4167 27.5208V16.4271ZM20.5625 12C21.7778 12 22.8194 12.434 23.6875 13.3021C24.5556 14.1701 24.9896 15.2118 24.9896 16.4271C24.9896 17.2604 24.7812 18.0243 24.3646 18.7188C23.9826 19.3785 23.4444 19.8993 22.75 20.2812V18.9271C23.5139 18.2674 23.8958 17.4514 23.8958 16.4792C23.8958 15.5069 23.566 14.7083 22.9062 14.0833C22.2465 13.4236 21.4479 13.0938 20.5104 13.0938C19.6076 13.0938 18.8264 13.4236 18.1667 14.0833C17.5417 14.7083 17.2292 15.5069 17.2292 16.4792C17.2292 17.4514 17.5938 18.2674 18.3229 18.9271V20.2812C17.6285 19.8993 17.0729 19.3785 16.6562 18.7188C16.2743 18.0243 16.0833 17.2604 16.0833 16.4271C16.0833 15.2118 16.5174 14.1701 17.3854 13.3021C18.2535 12.434 19.3125 12 20.5625 12Z" fill="#146DA6"/>
<path fill-rule="evenodd" clip-rule="evenodd" d="M9.3125 22V8.6875H30.6875V22H28.9538L29.2924 22.1515L29.2954 22.1529C29.9405 22.4403 30.5023 22.9102 30.8726 23.5712C31.0875 23.9039 31.2313 24.2568 31.3169 24.6153C31.7608 24.5082 32.1552 24.2823 32.5 23.9375C33.0417 23.3958 33.3125 22.75 33.3125 22V8.6875C33.3125 7.9375 33.0417 7.3125 32.5 6.8125C32 6.27083 31.3958 6 30.6875 6H9.3125C8.60417 6 7.97917 6.27083 7.4375 6.8125C6.9375 7.3125 6.6875 7.9375 6.6875 8.6875V22C6.6875 22.75 6.9375 23.3958 7.4375 23.9375C7.97917 24.4375 8.60417 24.6875 9.3125 24.6875H4V28H12.276L11.1074 26.9999L13.3986 24.5655L13.42 24.5441C14.028 23.9362 14.8083 23.6458 15.6155 23.6458H16.3727L17.4176 24.199V22.0654L17.36 22.0337C17.3398 22.0225 17.3196 22.0113 17.2995 22H9.3125ZM24.0576 22L28.4792 23.9792C28.7917 24.1181 29.0174 24.3264 29.1562 24.6042C29.3299 24.8472 29.4167 25.1424 29.4167 25.4896V28H29.4176V25.4896C29.4176 25.1424 29.3308 24.8472 29.1572 24.6042C29.0183 24.3264 28.7926 24.1181 28.4801 23.9792L24.0586 22H24.0576ZM31.4176 28H36V24.6875H31.3334C31.3913 24.9544 31.4176 25.2238 31.4176 25.4896V28ZM19.4167 27.5208L15.875 25.6458H15.8759L19.4167 27.5203V27.5208Z" fill="#50CEE1"/>
</svg>
