<svg width="40" height="40" viewBox="0 0 40 40" fill="none" xmlns="http://www.w3.org/2000/svg">
<path fill-rule="evenodd" clip-rule="evenodd" d="M22.9123 8.04678C21.5478 6.68226 19.9103 6 18 6C16.0897 6 14.4522 6.68226 13.0877 8.04678C11.7232 9.41131 11.0409 11.076 11.0409 13.0409C11.0409 14.9513 11.7232 16.5887 13.0877 17.9532C13.6314 18.4969 14.2183 18.9322 14.8486 19.2593L24.9254 13.7629C24.9478 13.5267 24.9591 13.2861 24.9591 13.0409C24.9591 11.076 24.2768 9.41131 22.9123 8.04678ZM31.9745 30.0454C31.9748 30.0479 31.9751 30.0504 31.9753 30.0529V30.203L25.0009 33.9999L25.0006 33.9997L31.9745 30.2031V30.0454ZM28.653 25.9994C28.6531 25.9995 28.6532 25.9995 28.6533 25.9996L25.0009 27.9999L25.0006 27.9997L28.653 25.9994ZM13.3575 23.9271C12.5372 24.0774 11.7377 24.2693 10.9591 24.5029C8.83041 25.1033 7.1384 25.9493 5.88304 27.0409C4.62768 28.078 4 29.2242 4 30.4795V34H20.8182L16.0264 31.3913V25.3829L13.3575 23.9271ZM29.1835 34L32 32.4667V34H29.1835ZM18.0264 26.1724V26.1717L25.0006 30.0153L25 30.0156L18.0264 26.1724Z" fill="#50CEE1"/>
<path opacity="0.6" d="M25 16L14 22L25 28L33.9872 23.0781V30.0156H36V22L25 16ZM18.0255 26.1719V30.2031L25 34L31.9745 30.2031V26.1719L25 30.0156L18.0255 26.1719Z" fill="#146DA6"/>
</svg>
