<svg width="26" height="23" viewBox="0 0 26 23" fill="none" xmlns="http://www.w3.org/2000/svg">
<path d="M11.2 0C12.7283 0 14.0382 0.545809 15.1298 1.63743C16.2214 2.72904 16.7673 3.62827 16.7673 5.2002C14.8008 5.7002 14.3008 6.13275 13.3008 7.2002C12.3008 8.7002 12.3008 9.7002 12.3008 11.2002C10.7725 11.2002 8.36179 10.6542 7.27018 9.56257C6.17856 8.47096 5.63275 7.16101 5.63275 5.63275C5.63275 4.06082 6.17856 2.72904 7.27018 1.63743C8.36179 0.545809 9.67173 0 11.2 0ZM11.2 14.0164C12.8008 14.2002 13.0979 14.2784 14.8008 14.8023C14.3343 15.2002 11.2 16.2002 9.80078 17.2002C8.80078 17.7002 8.30078 18.5793 8.30078 19.5836V22.4H0V19.5836C0 18.5793 0.502144 17.6624 1.50643 16.8327C2.51072 15.9595 3.86433 15.2827 5.56725 14.8023C7.31384 14.2784 9.19142 14.0164 11.2 14.0164Z" fill="#50CEE1"/>
<path opacity="0.6" d="M17.5996 6.3999C18.6912 6.3999 19.6269 6.78977 20.4066 7.56949C21.1864 8.34922 21.5762 9.30049 21.5762 10.4233C21.5762 11.5149 21.1864 12.4506 20.4066 13.2303C19.6269 14.01 18.6912 14.3999 17.5996 14.3999C16.508 14.3999 15.5723 14.01 14.7926 13.2303C14.0129 12.4506 13.623 11.5149 13.623 10.4233C13.623 9.30049 14.0129 8.34922 14.7926 7.56949C15.5723 6.78977 16.508 6.3999 17.5996 6.3999ZM17.5996 16.4116C19.0343 16.4116 20.3598 16.5987 21.5762 16.973C22.8238 17.3161 23.8062 17.7995 24.5236 18.4233C25.2409 19.0159 25.5996 19.6709 25.5996 20.3882V22.3999H9.59961V20.3882C9.59961 19.6709 9.95828 19.0159 10.6756 18.4233C11.393 17.7995 12.3598 17.3161 13.5762 16.973C14.8238 16.5987 16.1649 16.4116 17.5996 16.4116Z" fill="#146DA6"/>
</svg>
