<svg width="40" height="40" viewBox="0 0 40 40" fill="none" xmlns="http://www.w3.org/2000/svg">
<path opacity="0.6" d="M23.3803 14H27.6197C28.1784 14 28.6549 14.214 29.0493 14.642C29.4765 15.037 29.6901 15.5144 29.6901 16.0741V18.1975H33.9296C34.4883 18.1975 34.9648 18.4115 35.3592 18.8395C35.7864 19.2346 36 19.7284 36 20.321V31.8765C36 32.4691 35.7864 32.9794 35.3592 33.4074C34.9648 33.8025 34.4883 34 33.9296 34H17.0704C16.5117 34 16.0188 33.8025 15.5915 33.4074C15.1972 32.9794 15 32.4691 15 31.8765V20.321C15 19.7284 15.1972 19.2346 15.5915 18.8395C16.0188 18.4115 16.5117 18.1975 17.0704 18.1975H21.3099V16.0741C21.3099 15.5144 21.507 15.037 21.9014 14.642C22.3286 14.214 22.8216 14 23.3803 14ZM27.6197 18.1975V16.0741H23.3803V18.1975H27.6197Z" fill="#146DA6"/>
<path fill-rule="evenodd" clip-rule="evenodd" d="M10.2135 6.875C12.1628 6.29167 14.2583 6 16.5 6C18.7417 6 20.8129 6.29167 22.7135 6.875C24.6628 7.40972 26.1979 8.16319 27.3187 9.13542C28.4039 10.0296 28.9637 11.0377 28.9983 12.1598C28.7339 12.0533 28.449 12 28.1437 12H22C21.3296 12 20.738 12.2568 20.2254 12.7704C19.7521 13.2444 19.5155 13.8173 19.5155 14.4889V17.037H15.4845C14.8141 17.037 14.2225 17.2938 13.7099 17.8074C13.5639 17.9536 13.4405 18.1111 13.3395 18.2798C12.2588 18.1463 11.2167 17.9419 10.2135 17.6667C8.31287 17.0833 6.80214 16.3299 5.68129 15.4062C4.56043 14.434 4 13.3889 4 12.2708C4 11.1042 4.56043 10.059 5.68129 9.13542C6.80214 8.16319 8.31287 7.40972 10.2135 6.875ZM13 21.2979C12.0401 21.165 11.1113 20.9755 10.2135 20.7292C8.31287 20.1458 6.80214 19.3924 5.68129 18.4688C4.56043 17.4965 4 16.4514 4 15.3333V20C4 21.1181 4.56043 22.1632 5.68129 23.1354C6.80214 24.059 8.31287 24.8125 10.2135 25.3958C11.1113 25.6421 12.0401 25.8317 13 25.9645V21.2979ZM13 29.1C12.0401 28.9671 11.1113 28.7775 10.2135 28.5312C8.31287 27.9479 6.80214 27.1944 5.68129 26.2708C4.56043 25.2986 4 24.2535 4 23.1354V27.8021C4 28.9201 4.56043 29.9653 5.68129 30.9375C6.80214 31.8611 8.31287 32.6146 10.2135 33.1979C11.1164 33.4456 12.0507 33.6359 13.0164 33.7689C13.0055 33.6655 13 33.5598 13 33.4519V29.1Z" fill="#50CEE1"/>
</svg>
