<svg width="40" height="40" viewBox="0 0 40 40" fill="none" xmlns="http://www.w3.org/2000/svg">
<path fill-rule="evenodd" clip-rule="evenodd" d="M22.9123 8.04678C21.5478 6.68226 19.9103 6 18 6C16.0897 6 14.4522 6.68226 13.0877 8.04678C11.7232 9.41131 11.0409 11.076 11.0409 13.0409C11.0409 14.9513 11.7232 16.5887 13.0877 17.9532C14.4522 19.3177 16.0897 20 18 20C18.2906 20 18.5749 19.9842 18.8529 19.9526C19.9825 17.4036 22.1462 15.415 24.8119 14.519C24.91 14.0459 24.9591 13.5532 24.9591 13.0409C24.9591 11.076 24.2768 9.41131 22.9123 8.04678ZM18.0113 23.5205C18.0075 23.5205 18.0038 23.5205 18 23.5205C15.4893 23.5205 13.1423 23.848 10.9591 24.5029C8.83041 25.1033 7.1384 25.9493 5.88304 27.0409C4.62768 28.078 4 29.2242 4 30.4795V34H28H32V33.1679C30.7751 33.7031 29.4222 34 28 34C22.4772 34 18 29.5228 18 24C18 23.8392 18.0038 23.6794 18.0113 23.5205Z" fill="#50CEE1"/>
<path opacity="0.6" d="M33.6714 18.3286C34.3975 19.0798 34.9609 19.9437 35.3615 20.9202C35.7872 21.8967 36 22.9233 36 24C36 25.0516 35.7997 26.0782 35.3991 27.0798C34.9984 28.0563 34.4225 28.9202 33.6714 29.6714C32.9202 30.4225 32.0438 30.9984 31.0423 31.3991C30.0657 31.7997 29.0516 32 28 32C26.9484 32 25.9218 31.7997 24.9202 31.3991C23.9437 30.9984 23.0798 30.4225 22.3286 29.6714C21.5775 28.9202 21.0016 28.0563 20.6009 27.0798C20.2003 26.0782 20 25.0516 20 24C20 22.9484 20.2003 21.9343 20.6009 20.9577C21.0016 19.9562 21.5775 19.0798 22.3286 18.3286C23.0798 17.5775 23.9437 17.0016 24.9202 16.6009C25.9218 16.2003 26.9484 16 28 16H28.7887V22.6103C29.0391 22.7606 29.2394 22.9609 29.3897 23.2113C29.5399 23.4366 29.615 23.6995 29.615 24C29.615 24.4507 29.4523 24.8388 29.1268 25.1643C28.8263 25.4648 28.4507 25.615 28 25.615C27.5493 25.615 27.1612 25.4648 26.8357 25.1643C26.5352 24.8388 26.385 24.4507 26.385 24C26.385 23.6995 26.4601 23.4366 26.6103 23.2113C26.7606 22.9609 26.9609 22.7606 27.2113 22.6103V20.9202C26.5102 21.0955 25.9343 21.471 25.4836 22.0469C25.0329 22.6228 24.8075 23.2739 24.8075 24C24.8075 24.8764 25.1205 25.6275 25.7465 26.2535C26.3725 26.8795 27.1236 27.1925 28 27.1925C28.8764 27.1925 29.6275 26.8795 30.2535 26.2535C30.8795 25.6275 31.1925 24.8764 31.1925 24C31.1925 23.1236 30.8795 22.3725 30.2535 21.7465L31.3803 20.6197C31.831 21.0454 32.1815 21.5587 32.4319 22.1596C32.6823 22.7355 32.8075 23.349 32.8075 24C32.8075 24.8764 32.5947 25.6901 32.169 26.4413C31.7433 27.1674 31.1549 27.7433 30.4038 28.169C29.6776 28.5947 28.8764 28.8075 28 28.8075C27.1236 28.8075 26.3099 28.5947 25.5587 28.169C24.8326 27.7433 24.2567 27.1674 23.831 26.4413C23.4053 25.6901 23.1925 24.8764 23.1925 24C23.1925 22.8232 23.5681 21.7966 24.3192 20.9202C25.0955 20.0188 26.0595 19.4679 27.2113 19.2676V17.6526C26.1596 17.7778 25.2081 18.1408 24.3568 18.7418C23.5055 19.3427 22.8294 20.1064 22.3286 21.0329C21.8279 21.9343 21.5775 22.9233 21.5775 24C21.5775 25.1518 21.8654 26.2285 22.4413 27.23C23.0172 28.2066 23.7934 28.9828 24.77 29.5587C25.7715 30.1346 26.8482 30.4225 28 30.4225C29.1518 30.4225 30.216 30.1346 31.1925 29.5587C32.1941 28.9828 32.9828 28.2066 33.5587 27.23C34.1346 26.2285 34.4225 25.1518 34.4225 24C34.4225 23.1236 34.2473 22.2973 33.8967 21.5211C33.5712 20.7449 33.1205 20.0563 32.5446 19.4554L33.6714 18.3286Z" fill="#146DA6"/>
</svg>
