<svg width="32" height="32" viewBox="0 0 32 32" fill="none" xmlns="http://www.w3.org/2000/svg">
<path opacity="0.6" d="M18.7042 11.1997H22.0958C22.5427 11.1997 22.9239 11.3709 23.2394 11.7133C23.5812 12.0293 23.7521 12.4112 23.7521 12.859V14.5577H27.1437C27.5906 14.5577 27.9718 14.7289 28.2873 15.0713C28.6291 15.3874 28.8 15.7824 28.8 16.2565V25.5009C28.8 25.975 28.6291 26.3832 28.2873 26.7256C27.9718 27.0417 27.5906 27.1997 27.1437 27.1997H13.6563C13.2094 27.1997 12.815 27.0417 12.4732 26.7256C12.1577 26.3832 12 25.975 12 25.5009V16.2565C12 15.7824 12.1577 15.3874 12.4732 15.0713C12.815 14.7289 13.2094 14.5577 13.6563 14.5577H17.0479V12.859C17.0479 12.4112 17.2056 12.0293 17.5211 11.7133C17.8629 11.3709 18.2573 11.1997 18.7042 11.1997ZM22.0958 14.5577V12.859H18.7042V14.5577H22.0958Z" fill="#146DA6"/>
<path fill-rule="evenodd" clip-rule="evenodd" d="M8.16998 5.4998C9.72943 5.03314 11.4058 4.7998 13.1992 4.7998C14.9926 4.7998 16.6495 5.03314 18.17 5.4998C19.7294 5.92758 20.9575 6.53036 21.8542 7.30814C22.7223 8.0235 23.1702 8.83 23.1979 9.72763C22.9863 9.64241 22.7584 9.5998 22.5141 9.5998H17.5992C17.0629 9.5998 16.5896 9.80524 16.1795 10.2161C15.8009 10.5954 15.6116 11.0536 15.6116 11.5909V13.6294H12.3868C11.8505 13.6294 11.3772 13.8349 10.9671 14.2457C10.8503 14.3627 10.7516 14.4887 10.6708 14.6237C9.80624 14.5168 8.97262 14.3533 8.16998 14.1331C6.64951 13.6665 5.44093 13.0637 4.54425 12.3248C3.64756 11.547 3.19922 10.7109 3.19922 9.81647C3.19922 8.88314 3.64756 8.04703 4.54425 7.30814C5.44093 6.53036 6.64951 5.92758 8.16998 5.4998ZM10.3992 17.0381C9.63133 16.9318 8.88825 16.7802 8.16998 16.5831C6.64951 16.1165 5.44093 15.5137 4.54425 14.7748C3.64775 13.9972 3.19941 13.1613 3.19922 12.267V15.9998C3.19922 16.8942 3.64756 17.7304 4.54425 18.5081C5.44093 19.247 6.64951 19.8498 8.16998 20.3165C8.88825 20.5135 9.63133 20.6652 10.3992 20.7714V17.0381ZM10.3992 23.2798C9.63133 23.1735 8.88825 23.0218 8.16998 22.8248C6.64951 22.3581 5.44093 21.7554 4.54425 21.0165C3.64775 20.2389 3.19941 19.4029 3.19922 18.5087V22.2415C3.19922 23.1359 3.64756 23.972 4.54425 24.7498C5.44093 25.4887 6.64951 26.0915 8.16998 26.5581C8.89233 26.7563 9.63977 26.9085 10.4123 27.0149C10.4036 26.9322 10.3992 26.8476 10.3992 26.7613V23.2798Z" fill="#50CEE1"/>
</svg>
