<svg width="32" height="32" viewBox="0 0 32 32" fill="none" xmlns="http://www.w3.org/2000/svg">
<path fill-rule="evenodd" clip-rule="evenodd" d="M18.329 6.43723C17.2374 5.34561 15.9275 4.7998 14.3992 4.7998C12.871 4.7998 11.561 5.34561 10.4694 6.43723C9.37778 7.52885 8.83197 8.86062 8.83197 10.4326C8.83197 11.9608 9.37778 13.2708 10.4694 14.3624C10.9043 14.7973 11.3739 15.1456 11.8781 15.4072L19.9395 11.0101C19.9575 10.8212 19.9665 10.6287 19.9665 10.4326C19.9665 8.86062 19.4207 7.52885 18.329 6.43723ZM25.5788 24.0362C25.579 24.0381 25.5793 24.0401 25.5795 24.0421V24.1622L19.9999 27.1997L19.9997 27.1996L25.5788 24.1623V24.0362ZM22.9216 20.7993C22.9217 20.7994 22.9218 20.7994 22.9219 20.7995L19.9999 22.3997L19.9997 22.3996L22.9216 20.7993ZM10.6852 19.1415C10.029 19.2617 9.38939 19.4153 8.76647 19.6021C7.06355 20.0825 5.70994 20.7593 4.70565 21.6326C3.70136 22.4622 3.19922 23.3791 3.19922 24.3834V27.1998H16.6538L12.8203 25.1129V20.3061L10.6852 19.1415ZM23.346 27.1998L25.5992 25.9732V27.1998H23.346ZM14.4203 20.9377V20.9372L19.9997 24.0121L19.9992 24.0123L14.4203 20.9377Z" fill="#50CEE1"/>
<path opacity="0.6" d="M19.9992 12.7998L11.1992 17.5998L19.9992 22.3998L27.189 18.4623V24.0123H28.7992V17.5998L19.9992 12.7998ZM14.4196 20.9373V24.1623L19.9992 27.1998L25.5788 24.1623V20.9373L19.9992 24.0123L14.4196 20.9373Z" fill="#146DA6"/>
</svg>
