<svg width="32" height="32" viewBox="0 0 32 32" fill="none" xmlns="http://www.w3.org/2000/svg">
<path fill-rule="evenodd" clip-rule="evenodd" d="M18.9123 4.04678C17.5478 2.68226 15.9103 2 14 2C12.0897 2 10.4522 2.68226 9.08772 4.04678C7.7232 5.41131 7.04094 7.07602 7.04094 9.04094C7.04094 10.9513 7.7232 12.5887 9.08772 13.9532C10.4522 15.3177 12.0897 16 14 16C15.9103 16 17.5478 15.3177 18.9123 13.9532C20.2768 12.5887 20.9591 10.9513 20.9591 9.04094C20.9591 7.07602 20.2768 5.41131 18.9123 4.04678ZM18.2081 19.8563C16.8707 19.6324 15.468 19.5205 14 19.5205C11.4893 19.5205 9.1423 19.848 6.95906 20.5029C4.83041 21.1033 3.1384 21.9493 1.88304 23.0409C0.62768 24.078 0 25.2242 0 26.4795V30H24.0264L16.7317 24.339L18.8925 22.6721L16.7317 20.9953L18.2081 19.8563ZM27.9379 25.8065C27.9379 25.8066 27.9379 25.8066 27.9379 25.8066L26 27.3125L26 27.3125L27.9379 25.8065ZM26.6151 23.4907C26.6152 23.4907 26.6152 23.4907 26.6152 23.4907L26 23.9688L26 23.9687L26.6151 23.4907ZM20.7327 20.4347C20.7327 20.4347 20.7327 20.4347 20.7327 20.4347L20 21L20 21L20.7327 20.4347ZM28 29.9795V30H27.9735L28 29.9795ZM21.0937 23.5L20 24.3437L20 24.3438L21.0938 23.5L21.0937 23.5Z" fill="#50CEE1"/>
<path opacity="0.6" d="M26 13L32 17.6562L26 22.3438L20 17.6562L26 13ZM30.9062 20.1562L32 21L26 25.6562L20 21L21.0938 20.1562L26 23.9688L30.9062 20.1562ZM30.9062 23.5L32 24.3438L26 29L20 24.3438L21.0938 23.5L26 27.3125L30.9062 23.5Z" fill="#146DA6"/>
</svg>
