<svg width="32" height="32" viewBox="0 0 32 32" fill="none" xmlns="http://www.w3.org/2000/svg">
<path fill-rule="evenodd" clip-rule="evenodd" d="M18.329 6.43723C17.2374 5.34561 15.9275 4.7998 14.3992 4.7998C12.871 4.7998 11.561 5.34561 10.4694 6.43723C9.37778 7.52885 8.83197 8.86062 8.83197 10.4326C8.83197 11.9608 9.37778 13.2708 10.4694 14.3624C11.561 15.454 12.871 15.9998 14.3992 15.9998C14.6317 15.9998 14.8592 15.9872 15.0816 15.9619C15.9852 13.9227 17.7162 12.3318 19.8487 11.615C19.9272 11.2365 19.9665 10.8424 19.9665 10.4326C19.9665 8.86062 19.4207 7.52885 18.329 6.43723ZM14.4083 18.8162C14.4052 18.8162 14.4022 18.8162 14.3992 18.8162C12.3906 18.8162 10.5131 19.0782 8.76647 19.6021C7.06355 20.0825 5.70994 20.7593 4.70565 21.6326C3.70136 22.4622 3.19922 23.3791 3.19922 24.3834V27.1998H22.3992H25.5992V26.5341C24.6193 26.9623 23.537 27.1998 22.3992 27.1998C17.9809 27.1998 14.3992 23.6181 14.3992 19.1998C14.3992 19.0712 14.4023 18.9433 14.4083 18.8162Z" fill="#50CEE1"/>
<path opacity="0.6" d="M26.9371 14.6627C27.518 15.2637 27.9687 15.9547 28.2892 16.736C28.6297 17.5172 28.8 18.3385 28.8 19.1998C28.8 20.0411 28.6397 20.8624 28.3192 21.6637C27.9987 22.4449 27.538 23.136 26.9371 23.7369C26.3362 24.3378 25.6351 24.7986 24.8338 25.1191C24.0526 25.4396 23.2413 25.5998 22.4 25.5998C21.5587 25.5998 20.7374 25.4396 19.9362 25.1191C19.1549 24.7986 18.4638 24.3378 17.8629 23.7369C17.262 23.136 16.8013 22.4449 16.4808 21.6637C16.1603 20.8624 16 20.0411 16 19.1998C16 18.3585 16.1603 17.5472 16.4808 16.766C16.8013 15.9648 17.262 15.2637 17.8629 14.6627C18.4638 14.0618 19.1549 13.6011 19.9362 13.2806C20.7374 12.9601 21.5587 12.7998 22.4 12.7998H23.031V18.0881C23.2313 18.2083 23.3915 18.3685 23.5117 18.5688C23.6319 18.7491 23.692 18.9594 23.692 19.1998C23.692 19.5604 23.5618 19.8709 23.3014 20.1313C23.061 20.3716 22.7606 20.4918 22.4 20.4918C22.0394 20.4918 21.729 20.3716 21.4685 20.1313C21.2282 19.8709 21.108 19.5604 21.108 19.1998C21.108 18.9594 21.1681 18.7491 21.2883 18.5688C21.4085 18.3685 21.5687 18.2083 21.769 18.0881V16.736C21.2081 16.8762 20.7474 17.1766 20.3869 17.6374C20.0263 18.0981 19.846 18.6189 19.846 19.1998C19.846 19.9009 20.0964 20.5018 20.5972 21.0026C21.098 21.5034 21.6989 21.7538 22.4 21.7538C23.1011 21.7538 23.702 21.5034 24.2028 21.0026C24.7036 20.5018 24.954 19.9009 24.954 19.1998C24.954 18.4987 24.7036 17.8978 24.2028 17.397L25.1042 16.4956C25.4648 16.8361 25.7452 17.2468 25.9455 17.7275C26.1459 18.1882 26.246 18.679 26.246 19.1998C26.246 19.9009 26.0757 20.5519 25.7352 21.1529C25.3947 21.7338 24.9239 22.1945 24.323 22.535C23.7421 22.8755 23.1011 23.0458 22.4 23.0458C21.6989 23.0458 21.0479 22.8755 20.4469 22.535C19.866 22.1945 19.4053 21.7338 19.0648 21.1529C18.7243 20.5519 18.554 19.9009 18.554 19.1998C18.554 18.2583 18.8545 17.4371 19.4554 16.736C20.0764 16.0148 20.8476 15.5741 21.769 15.4139V14.1219C20.9277 14.222 20.1665 14.5125 19.4854 14.9932C18.8044 15.474 18.2635 16.0849 17.8629 16.8261C17.4623 17.5472 17.262 18.3385 17.262 19.1998C17.262 20.1212 17.4923 20.9826 17.9531 21.7838C18.4138 22.5651 19.0347 23.186 19.816 23.6468C20.6172 24.1075 21.4786 24.3378 22.4 24.3378C23.3214 24.3378 24.1728 24.1075 24.954 23.6468C25.7552 23.186 26.3862 22.5651 26.8469 21.7838C27.3077 20.9826 27.538 20.1212 27.538 19.1998C27.538 18.4987 27.3978 17.8377 27.1174 17.2167C26.857 16.5957 26.4964 16.0449 26.0357 15.5641L26.9371 14.6627Z" fill="#146DA6"/>
</svg>
